<svg width="30" height="30" viewBox="0 0 30 30" xmlns="http://www.w3.org/2000/svg">
	<path
		d="M15 0.375C12.1075 0.375 9.27986 1.23274 6.87479 2.83976C4.46972 4.44677 2.5952 6.73089 1.48827 9.40326C0.381337 12.0756 0.0917129 15.0162 0.656022 17.8532C1.22033 20.6902 2.61323 23.2961 4.65857 25.3414C6.70391 27.3868 9.30984 28.7797 12.1468 29.344C14.9838 29.9083 17.9244 29.6187 20.5968 28.5117C23.2691 27.4048 25.5532 25.5303 27.1603 23.1252C28.7673 20.7201 29.625 17.8926 29.625 15C29.6206 11.1226 28.0784 7.40518 25.3366 4.66341C22.5948 1.92165 18.8775 0.379392 15 0.375ZM15 27.375C12.5525 27.375 10.1599 26.6492 8.12483 25.2894C6.08977 23.9297 4.50363 21.9969 3.567 19.7357C2.63036 17.4745 2.3853 14.9863 2.86279 12.5858C3.34028 10.1852 4.51889 7.98023 6.24956 6.24955C7.98024 4.51888 10.1853 3.34027 12.5858 2.86278C14.9863 2.38529 17.4745 2.63036 19.7357 3.56699C21.997 4.50363 23.9297 6.08976 25.2894 8.12482C26.6492 10.1599 27.375 12.5525 27.375 15C27.3713 18.2809 26.0663 21.4264 23.7463 23.7463C21.4264 26.0663 18.2809 27.3713 15 27.375ZM18.0026 10.7737L13.3067 15L18.0026 19.2263C18.1132 19.325 18.2031 19.4445 18.2674 19.578C18.3316 19.7115 18.3688 19.8563 18.3769 20.0043C18.385 20.1522 18.3638 20.3002 18.3145 20.44C18.2653 20.5797 18.1889 20.7083 18.0898 20.8184C17.9907 20.9285 17.8708 21.0179 17.737 21.0816C17.6032 21.1452 17.4582 21.1818 17.3103 21.1893C17.1623 21.1968 17.0143 21.1749 16.8748 21.1251C16.7353 21.0752 16.6071 20.9982 16.4974 20.8987L10.8724 15.8362C10.7552 15.7307 10.6615 15.6017 10.5973 15.4577C10.5332 15.3136 10.5 15.1577 10.5 15C10.5 14.8423 10.5332 14.6864 10.5973 14.5423C10.6615 14.3983 10.7552 14.2693 10.8724 14.1638L16.4974 9.10135C16.7194 8.90325 17.0108 8.80115 17.3079 8.81741C17.605 8.83367 17.8835 8.96696 18.0826 9.1881C18.2816 9.40924 18.385 9.70023 18.37 9.99739C18.355 10.2945 18.2229 10.5737 18.0026 10.7737Z" />
</svg>