<svg width="30" height="30" viewBox="0 0 30 30" xmlns="http://www.w3.org/2000/svg">
	<path
		d="M15 29.625C17.8925 29.625 20.7201 28.7673 23.1252 27.1602C25.5303 25.5532 27.4048 23.2691 28.5117 20.5967C29.6187 17.9244 29.9083 14.9838 29.344 12.1468C28.7797 9.30983 27.3868 6.70391 25.3414 4.65856C23.2961 2.61322 20.6902 1.22032 17.8532 0.656015C15.0162 0.091706 12.0756 0.381329 9.40325 1.48826C6.73088 2.59519 4.44677 4.46972 2.83975 6.87478C1.23274 9.27985 0.374995 12.1074 0.374995 15C0.379386 18.8774 1.92164 22.5948 4.66341 25.3366C7.40518 28.0784 11.1226 29.6206 15 29.625V29.625ZM15 2.625C17.4475 2.625 19.8401 3.35078 21.8752 4.71056C23.9102 6.07035 25.4964 8.00306 26.433 10.2643C27.3696 12.5255 27.6147 15.0137 27.1372 17.4142C26.6597 19.8148 25.4811 22.0198 23.7504 23.7504C22.0198 25.4811 19.8148 26.6597 17.4142 27.1372C15.0137 27.6147 12.5255 27.3696 10.2643 26.433C8.00305 25.4964 6.07034 23.9102 4.71056 21.8752C3.35078 19.8401 2.62499 17.4475 2.62499 15C2.62872 11.7191 3.9337 8.57362 6.25366 6.25366C8.57362 3.93371 11.7191 2.62872 15 2.625V2.625ZM11.9974 19.2263L16.6933 15L11.9974 10.7737C11.8868 10.675 11.7969 10.5555 11.7326 10.422C11.6684 10.2885 11.6312 10.1437 11.6231 9.99575C11.615 9.84782 11.6362 9.69976 11.6855 9.56005C11.7347 9.42034 11.8111 9.29174 11.9102 9.18163C12.0093 9.07153 12.1292 8.98208 12.263 8.91842C12.3968 8.85476 12.5418 8.81815 12.6898 8.81069C12.8377 8.80323 12.9857 8.82507 13.1252 8.87495C13.2647 8.92482 13.3929 9.00176 13.5026 9.10134L19.1276 14.1638C19.2448 14.2693 19.3385 14.3983 19.4027 14.5423C19.4668 14.6864 19.5 14.8423 19.5 15C19.5 15.1577 19.4668 15.3136 19.4027 15.4577C19.3385 15.6017 19.2448 15.7307 19.1276 15.8362L13.5026 20.8987C13.2806 21.0968 12.9892 21.1988 12.6921 21.1826C12.395 21.1663 12.1165 21.033 11.9174 20.8119C11.7184 20.5908 11.615 20.2998 11.63 20.0026C11.645 19.7055 11.7771 19.4263 11.9974 19.2263Z" />
</svg>