<svg width="16" height="16" viewBox="0 0 16 16" fill="none" xmlns="http://www.w3.org/2000/svg">
	<path
		d="M14.3535 13.6466L11.6522 10.9451C12.6062 9.80901 13.0847 8.34848 12.9881 6.86811C12.8915 5.38773 12.2271 4.0018 11.1335 2.99934C10.04 1.99687 8.6016 1.45525 7.11843 1.48744C5.63525 1.51963 4.22175 2.12313 3.1727 3.17209C2.12364 4.22106 1.52001 5.6345 1.4877 7.11767C1.45538 8.60085 1.99687 10.0392 2.99924 11.1329C4.00161 12.2266 5.38748 12.8911 6.86784 12.9878C8.34821 13.0846 9.80878 12.6061 10.945 11.6523L13.6464 14.3537C13.7402 14.4475 13.8674 14.5001 14 14.5001C14.1326 14.5001 14.2598 14.4475 14.3535 14.3537C14.4473 14.2599 14.5 14.1327 14.5 14.0001C14.5 13.8675 14.4473 13.7403 14.3535 13.6466ZM2.50036 7.25007C2.50036 6.31061 2.77894 5.39224 3.30088 4.61111C3.82282 3.82998 4.56467 3.22116 5.43261 2.86164C6.30056 2.50213 7.25563 2.40806 8.17704 2.59134C9.09845 2.77462 9.94482 3.22701 10.6091 3.89131C11.2734 4.55561 11.7258 5.40198 11.9091 6.32339C12.0924 7.2448 11.9983 8.19987 11.6388 9.06782C11.2793 9.93576 10.6705 10.6776 9.88932 11.1995C9.10819 11.7215 8.18982 12.0001 7.25036 12.0001C5.99102 11.9986 4.78366 11.4977 3.89318 10.6073C3.00269 9.71677 2.50178 8.50941 2.50036 7.25007Z" />
</svg>