<svg width="174" height="32" viewBox="0 0 174 32" fill="none" xmlns="http://www.w3.org/2000/svg">
	<path
		d="M47.8 14.38V16.8H50.66C50.32 17.6 49.36 18.12 48.16 18.12C46.42 18.12 45.26 16.88 45.26 15C45.26 13.12 46.42 11.88 48.16 11.88C49.3 11.88 50.38 12.5 50.76 13.38H55.7C55.2 10 52.06 7.6 48.16 7.6C43.64 7.6 40.46 10.66 40.46 15C40.46 19.34 43.64 22.4 48.16 22.4C52.74 22.4 55.8 19.18 55.8 14.38H47.8ZM65.8509 11.2L65.4309 11.94C64.5509 11.24 63.4709 10.84 62.2509 10.84C58.8909 10.84 56.6109 13.14 56.6109 16.6C56.6109 20.06 58.8909 22.4 62.2509 22.4C63.4509 22.4 64.5309 22.02 65.4109 21.34L65.7709 22H69.2109V11.2H65.8509ZM61.0909 16.62C61.0909 15.46 61.9109 14.58 63.0709 14.58C64.2109 14.58 65.0509 15.46 65.0509 16.62C65.0509 17.8 64.2109 18.68 63.0709 18.68C61.9309 18.68 61.0909 17.8 61.0909 16.62ZM84.2963 10.8C82.9563 10.8 81.7563 11.38 80.9163 12.32C80.2163 11.38 79.1163 10.8 77.8363 10.8C76.5963 10.8 75.4963 11.32 74.6963 12.16L74.2763 11.2H71.0963V22H75.5763V15.94C75.5763 15 75.9563 14.44 76.5963 14.44C77.1563 14.44 77.4763 14.88 77.4763 15.64V22H81.8363V15.94C81.8363 14.96 82.1763 14.44 82.8763 14.44C83.4363 14.44 83.7363 14.8 83.7363 15.64V22H88.2163V15.18C88.2163 12.66 86.7363 10.8 84.2963 10.8ZM101.883 16.44C101.883 13.18 99.323 10.8 95.623 10.8C92.003 10.8 89.423 13.2 89.423 16.58C89.423 19.96 92.023 22.4 95.623 22.4C98.563 22.4 100.863 20.86 101.623 18.28H97.403C97.103 18.82 96.423 19.12 95.623 19.12C94.603 19.12 93.923 18.6 93.683 17.54H101.783C101.843 17.16 101.883 16.8 101.883 16.44ZM95.623 14.06C96.643 14.06 97.323 14.58 97.543 15.48H93.723C94.003 14.54 94.643 14.06 95.623 14.06ZM107.686 22.4C110.706 22.4 112.726 20.9 112.726 18.62C112.726 15.72 110.446 15.4 108.786 15.12C107.806 14.96 107.026 14.84 107.026 14.26C107.026 13.84 107.346 13.66 107.666 13.66C108.006 13.66 108.366 13.9 108.366 14.44H112.506C112.406 12.24 110.566 10.8 107.666 10.8C104.726 10.8 102.766 12.14 102.766 14.42C102.766 17.12 104.986 17.66 106.626 17.92C107.606 18.08 108.366 18.2 108.366 18.8C108.366 19.22 108.046 19.44 107.686 19.44C107.326 19.44 106.926 19.18 106.926 18.54H102.666C102.746 20.88 104.466 22.4 107.686 22.4ZM132.525 22L130.485 8H125.885L122.985 14.74L120.145 8H115.545L113.485 22H118.165L118.945 14.96L122.205 22H123.805L127.045 14.94L127.885 22H132.525ZM139.454 22.4C143.194 22.4 145.774 20.04 145.774 16.6C145.774 13.16 143.194 10.8 139.454 10.8C135.714 10.8 133.134 13.16 133.134 16.6C133.134 20.04 135.714 22.4 139.454 22.4ZM139.454 18.54C138.374 18.54 137.574 17.74 137.574 16.6C137.574 15.46 138.374 14.66 139.454 14.66C140.534 14.66 141.334 15.48 141.334 16.6C141.334 17.74 140.534 18.54 139.454 18.54ZM154.752 7.3V11.52C153.992 11.06 153.112 10.8 152.172 10.8C148.812 10.8 146.532 13.14 146.532 16.6C146.532 20.06 148.812 22.4 152.172 22.4C153.432 22.4 154.572 21.96 155.432 21.2L155.792 22H159.132V7.3H154.752ZM152.992 18.68C151.852 18.68 151.012 17.78 151.012 16.6C151.012 15.42 151.852 14.52 152.992 14.52C154.132 14.52 154.972 15.42 154.972 16.6C154.972 17.78 154.132 18.68 152.992 18.68ZM172.918 16.44C172.918 13.18 170.358 10.8 166.658 10.8C163.038 10.8 160.458 13.2 160.458 16.58C160.458 19.96 163.058 22.4 166.658 22.4C169.598 22.4 171.898 20.86 172.658 18.28H168.438C168.138 18.82 167.458 19.12 166.658 19.12C165.638 19.12 164.958 18.6 164.718 17.54H172.818C172.878 17.16 172.918 16.8 172.918 16.44ZM166.658 14.06C167.678 14.06 168.358 14.58 168.578 15.48H164.758C165.038 14.54 165.678 14.06 166.658 14.06Z"
		fill="url(#paint0_linear_20_142)" />
	<path
		d="M6.66665 10.6667C8.08113 10.6667 9.43769 11.2286 10.4379 12.2288C11.4381 13.229 12 14.5856 12 16C12 17.4145 11.4381 18.7711 10.4379 19.7713C9.43769 20.7715 8.08113 21.3334 6.66665 21.3334C5.25216 21.3334 3.8956 20.7715 2.89541 19.7713C1.89522 18.7711 1.33331 17.4145 1.33331 16C1.33331 14.5856 1.89522 13.229 2.89541 12.2288C3.8956 11.2286 5.25216 10.6667 6.66665 10.6667ZM16 1.33337C17.4145 1.33337 18.771 1.89528 19.7712 2.89547C20.7714 3.89567 21.3333 5.25222 21.3333 6.66671C21.3333 8.08119 20.7714 9.43775 19.7712 10.4379C18.771 11.4381 17.4145 12 16 12C14.5855 12 13.2289 11.4381 12.2287 10.4379C11.2285 9.43775 10.6666 8.08119 10.6666 6.66671C10.6666 5.25222 11.2285 3.89567 12.2287 2.89547C13.2289 1.89528 14.5855 1.33337 16 1.33337ZM16 20C17.4145 20 18.771 20.5619 19.7712 21.5621C20.7714 22.5623 21.3333 23.9189 21.3333 25.3334C21.3333 26.7479 20.7714 28.1044 19.7712 29.1046C18.771 30.1048 17.4145 30.6667 16 30.6667C14.5855 30.6667 13.2289 30.1048 12.2287 29.1046C11.2285 28.1044 10.6666 26.7479 10.6666 25.3334C10.6666 23.9189 11.2285 22.5623 12.2287 21.5621C13.2289 20.5619 14.5855 20 16 20ZM25.3333 10.6667C26.7478 10.6667 28.1044 11.2286 29.1045 12.2288C30.1047 13.229 30.6666 14.5856 30.6666 16C30.6666 17.4145 30.1047 18.7711 29.1045 19.7713C28.1044 20.7715 26.7478 21.3334 25.3333 21.3334C23.9188 21.3334 22.5623 20.7715 21.5621 19.7713C20.5619 18.7711 20 17.4145 20 16C20 14.5856 20.5619 13.229 21.5621 12.2288C22.5623 11.2286 23.9188 10.6667 25.3333 10.6667Z"
		fill="url(#paint1_linear_20_142)" />
	<defs>
		<linearGradient id="paint0_linear_20_142" x1="40" y1="15.5806" x2="174" y2="15.5807" gradientUnits="userSpaceOnUse">
			<stop stop-color="#0061FD" stop-opacity="0.8" />
			<stop offset="0.895004" stop-color="#BCD6FF" />
		</linearGradient>
		<linearGradient id="paint1_linear_20_142" x1="16" y1="1.33337" x2="16" y2="30.6667" gradientUnits="userSpaceOnUse">
			<stop stop-color="#125CCF" />
			<stop offset="0.9375" stop-color="#01C7FC" />
			<stop offset="1" stop-color="#74A7FF" />
		</linearGradient>
	</defs>
</svg>